<svg xmlns="http://www.w3.org/2000/svg" viewBox="0 0 200 215">
  <ellipse cx="68" cy="30" rx="30" ry="36" fill="black"/>
  <ellipse cx="132" cy="30" rx="30" ry="36" fill="black"/>
  <circle cx="100" cy="76" r="53" fill="black"/>
  <ellipse cx="27" cy="128" rx="34" ry="55" fill="black"/>
  <ellipse cx="173" cy="128" rx="34" ry="55" fill="black"/>
  <ellipse cx="100" cy="155" rx="52" ry="58" fill="black"/>
  <circle cx="76" cy="73" r="24" fill="white"/>
  <circle cx="124" cy="73" r="24" fill="white"/>
  <circle cx="76" cy="73" r="17" fill="black"/>
  <circle cx="124" cy="73" r="17" fill="black"/>
  <circle cx="76" cy="73" r="8" fill="white"/>
  <circle cx="124" cy="73" r="8" fill="white"/>
  <polygon points="100,93 110,104 100,115 90,104" fill="white"/>
  <circle cx="85" cy="148" r="8" fill="white"/>
  <circle cx="115" cy="148" r="8" fill="white"/>
  <circle cx="85" cy="171" r="8" fill="white"/>
  <circle cx="115" cy="171" r="8" fill="white"/>
</svg>
